<svg aria-hidden="true" style="position: absolute; width: 0; height: 0; overflow: hidden;" version="1.1" xmlns="http://www.w3.org/2000/svg" xmlns:xlink="http://www.w3.org/1999/xlink">
<defs>
<symbol id="icon-trashcan" viewBox="0 0 32 32">
<path d="M21 28c0.553 0 1-0.447 1-1v-14c0-0.553-0.447-1-1-1s-1 0.447-1 1v14c0 0.553 0.447 1 1 1zM11 28c0.552 0 1-0.447 1-1v-14c0-0.553-0.448-1-1-1s-1 0.447-1 1v14c0 0.553 0.448 1 1 1zM29 6h-4v-2c0-2.209-1.791-4-4-4h-10c-2.209 0-4 1.791-4 4v2h-4l-3 3c0 0.553 0.448 1 1 1h3v20c0 1.104 0.896 2 2 2h20c1.104 0 2-0.896 2-2v-20h3c0.553 0 1-0.447 1-1l-3-3zM10 4c0-1.104 0.896-2 2-2h8c1.104 0 2 0.896 2 2v2h-12v-2zM26 29c0 0.553-0.447 1-1 1h-18c-0.552 0-1-0.447-1-1v-19h20v19zM16 28c0.553 0 1-0.447 1-1v-14c0-0.553-0.447-1-1-1s-1 0.447-1 1v14c0 0.553 0.447 1 1 1z"></path>
</symbol>
<symbol id="icon-bin" viewBox="0 0 32 32">
<path d="M4 10v20c0 1.1 0.9 2 2 2h18c1.1 0 2-0.9 2-2v-20h-22zM10 28h-2v-14h2v14zM14 28h-2v-14h2v14zM18 28h-2v-14h2v14zM22 28h-2v-14h2v14z"></path>
<path d="M26.5 4h-6.5v-2.5c0-0.825-0.675-1.5-1.5-1.5h-7c-0.825 0-1.5 0.675-1.5 1.5v2.5h-6.5c-0.825 0-1.5 0.675-1.5 1.5v2.5h26v-2.5c0-0.825-0.675-1.5-1.5-1.5zM18 4h-6v-1.975h6v1.975z"></path>
</symbol>
<symbol id="icon-checkbox-checked" viewBox="0 0 32 32">
<path d="M28 0h-24c-2.2 0-4 1.8-4 4v24c0 2.2 1.8 4 4 4h24c2.2 0 4-1.8 4-4v-24c0-2.2-1.8-4-4-4zM14 24.828l-7.414-7.414 2.828-2.828 4.586 4.586 9.586-9.586 2.828 2.828-12.414 12.414z"></path>
</symbol>
<symbol id="icon-check-square" viewBox="0 0 24 24">
<path d="M8.293 11.707l3 3c0.391 0.391 1.024 0.391 1.414 0l10-10c0.391-0.391 0.391-1.024 0-1.414s-1.024-0.391-1.414 0l-9.293 9.293-2.293-2.293c-0.391-0.391-1.024-0.391-1.414 0s-0.391 1.024 0 1.414zM20 12v7c0 0.276-0.111 0.525-0.293 0.707s-0.431 0.293-0.707 0.293h-14c-0.276 0-0.525-0.111-0.707-0.293s-0.293-0.431-0.293-0.707v-14c0-0.276 0.111-0.525 0.293-0.707s0.431-0.293 0.707-0.293h11c0.552 0 1-0.448 1-1s-0.448-1-1-1h-11c-0.828 0-1.58 0.337-2.121 0.879s-0.879 1.293-0.879 2.121v14c0 0.828 0.337 1.58 0.879 2.121s1.293 0.879 2.121 0.879h14c0.828 0 1.58-0.337 2.121-0.879s0.879-1.293 0.879-2.121v-7c0-0.552-0.448-1-1-1s-1 0.448-1 1z"></path>
</symbol>
<symbol id="icon-edit" viewBox="0 0 24 24">
<path d="M8.011 13.655l-1.657 4.252 4.179-1.73-2.522-2.522zM20.141 4.573l-0.53-0.53c-0.585-0.586-1.535-0.586-2.121 0l-1.061 1.060 2.651 2.652 1.061-1.061c0.587-0.586 0.587-1.536 0-2.122zM8.095 13.438l0.38-0.38 2.651 2.651 7.425-7.425-2.651-2.651 0.53-0.531-8.335 8.335zM17.253 19.503l-12.769 0.005 0.002-12.769 8.941-0.003 1.401-1.485h-11.104c-0.414 0-0.75 0.335-0.75 0.75v14.25c0 0.415 0.336 0.75 0.75 0.75h14.25c0.415 0 0.75-0.335 0.75-0.75v-10.543l-1.511 1.483 0.041 8.314z"></path>
</symbol>
<symbol id="icon-checked" viewBox="0 0 32 32">
<path d="M26.5 27h-3c-0.276 0-0.5-0.224-0.5-0.5s0.224-0.5 0.5-0.5h2.5v-2.5c0-0.276 0.224-0.5 0.5-0.5 0.275 0 0.5 0.224 0.5 0.5v3c0 0.276-0.225 0.5-0.5 0.5zM26.5 21c-0.276 0-0.5-0.224-0.5-0.5v-3c0-0.276 0.224-0.5 0.5-0.5 0.275 0 0.5 0.224 0.5 0.5v3c0 0.276-0.225 0.5-0.5 0.5zM26.5 15c-0.276 0-0.5-0.224-0.5-0.5v-3c0-0.276 0.224-0.5 0.5-0.5 0.275 0 0.5 0.224 0.5 0.5v3c0 0.276-0.225 0.5-0.5 0.5zM26.5 9c-0.276 0-0.5-0.224-0.5-0.5v-2.5h-2.5c-0.276 0-0.5-0.224-0.5-0.5s0.224-0.5 0.5-0.5h3c0.275 0 0.5 0.224 0.5 0.5v3c0 0.276-0.225 0.5-0.5 0.5zM14.666 21.053c-0.184 0.185-0.483 0.185-0.668 0l-1.002-1.002c-0.002-0.003-0.001-0.007-0.003-0.009l-3.188-3.212c-0.185-0.184-0.185-0.483 0-0.668l1.002-1.003c0.185-0.185 0.484-0.185 0.669 0l2.86 2.881 6.014-6.013c0.184-0.185 0.483-0.185 0.668 0l1.002 1.003c0.186 0.185 0.186 0.484 0 0.669l-7.354 7.354zM20.5 6h-3c-0.276 0-0.5-0.224-0.5-0.5s0.224-0.5 0.5-0.5h3c0.275 0 0.5 0.224 0.5 0.5s-0.225 0.5-0.5 0.5zM14.5 6h-3c-0.276 0-0.5-0.224-0.5-0.5s0.224-0.5 0.5-0.5h3c0.275 0 0.5 0.224 0.5 0.5s-0.225 0.5-0.5 0.5zM8.5 27h-3c-0.276 0-0.5-0.224-0.5-0.5v-3c0-0.276 0.224-0.5 0.5-0.5s0.5 0.224 0.5 0.5v2.5h2.5c0.276 0 0.5 0.224 0.5 0.5s-0.224 0.5-0.5 0.5zM8.5 6h-2.5v2.5c0 0.276-0.224 0.5-0.5 0.5s-0.5-0.224-0.5-0.5v-3c0-0.276 0.224-0.5 0.5-0.5h3c0.276 0 0.5 0.224 0.5 0.5s-0.224 0.5-0.5 0.5zM5.5 11c0.276 0 0.5 0.224 0.5 0.5v3c0 0.276-0.224 0.5-0.5 0.5s-0.5-0.224-0.5-0.5v-3c0-0.276 0.224-0.5 0.5-0.5zM5.5 17c0.276 0 0.5 0.224 0.5 0.5v3c0 0.276-0.224 0.5-0.5 0.5s-0.5-0.224-0.5-0.5v-3c0-0.276 0.224-0.5 0.5-0.5zM11.5 26h3c0.275 0 0.5 0.224 0.5 0.5s-0.225 0.5-0.5 0.5h-3c-0.276 0-0.5-0.224-0.5-0.5s0.224-0.5 0.5-0.5zM17.5 26h3c0.275 0 0.5 0.224 0.5 0.5s-0.225 0.5-0.5 0.5h-3c-0.276 0-0.5-0.224-0.5-0.5s0.224-0.5 0.5-0.5z"></path>
</symbol>
<symbol id="icon-edit" viewBox="0 0 32 32">
<path d="M10.681 18.207l-2.209 5.67 5.572-2.307-3.363-3.363zM26.855 6.097l-0.707-0.707c-0.78-0.781-2.047-0.781-2.828 0l-1.414 1.414 3.535 3.536 1.414-1.414c0.782-0.781 0.782-2.048 0-2.829zM10.793 17.918l0.506-0.506 3.535 3.535 9.9-9.9-3.535-3.535 0.707-0.708-11.113 11.114zM23.004 26.004l-17.026 0.006 0.003-17.026 11.921-0.004 1.868-1.98h-14.805c-0.552 0-1 0.447-1 1v19c0 0.553 0.448 1 1 1h19c0.553 0 1-0.447 1-1v-14.058l-2.015 1.977 0.054 11.085z"></path>
</symbol>
<symbol id="icon-refresh" viewBox="0 0 24 28">
<path d="M23.609 16.5c0 0.031 0 0.078-0.016 0.109-1.328 5.531-5.891 9.391-11.656 9.391-3.047 0-6-1.203-8.219-3.313l-2.016 2.016c-0.187 0.187-0.438 0.297-0.703 0.297-0.547 0-1-0.453-1-1v-7c0-0.547 0.453-1 1-1h7c0.547 0 1 0.453 1 1 0 0.266-0.109 0.516-0.297 0.703l-2.141 2.141c1.469 1.375 3.422 2.156 5.437 2.156 2.781 0 5.359-1.437 6.813-3.813 0.375-0.609 0.562-1.203 0.828-1.828 0.078-0.219 0.234-0.359 0.469-0.359h3c0.281 0 0.5 0.234 0.5 0.5zM24 4v7c0 0.547-0.453 1-1 1h-7c-0.547 0-1-0.453-1-1 0-0.266 0.109-0.516 0.297-0.703l2.156-2.156c-1.484-1.375-3.437-2.141-5.453-2.141-2.781 0-5.359 1.437-6.813 3.813-0.375 0.609-0.562 1.203-0.828 1.828-0.078 0.219-0.234 0.359-0.469 0.359h-3.109c-0.281 0-0.5-0.234-0.5-0.5v-0.109c1.344-5.547 5.953-9.391 11.719-9.391 3.063 0 6.047 1.219 8.266 3.313l2.031-2.016c0.187-0.187 0.438-0.297 0.703-0.297 0.547 0 1 0.453 1 1z"></path>
</symbol>
</defs>
</svg>
